<svg id="visual" viewBox="0 0 900 200" width="900" height="200" xmlns="http://www.w3.org/2000/svg" xmlns:xlink="http://www.w3.org/1999/xlink" version="1.1"><rect x="0" y="0" width="900" height="200" fill="#DDDEE0"></rect><path d="M0 48L21.5 51.8C43 55.7 86 63.3 128.8 74.7C171.7 86 214.3 101 257.2 99.2C300 97.3 343 78.7 385.8 69.7C428.7 60.7 471.3 61.3 514.2 69C557 76.7 600 91.3 642.8 107C685.7 122.7 728.3 139.3 771.2 132C814 124.7 857 93.3 878.5 77.7L900 62L900 201L878.5 201C857 201 814 201 771.2 201C728.3 201 685.7 201 642.8 201C600 201 557 201 514.2 201C471.3 201 428.7 201 385.8 201C343 201 300 201 257.2 201C214.3 201 171.7 201 128.8 201C86 201 43 201 21.5 201L0 201Z" fill="#EEEFAF" stroke-linecap="round" stroke-linejoin="miter"></path></svg>