<svg id="visual" viewBox="0 0 900 200" width="900" height="200" xmlns="http://www.w3.org/2000/svg" xmlns:xlink="http://www.w3.org/1999/xlink" version="1.1"><rect x="0" y="0" width="900" height="200" fill="#EEEFAF"></rect><path d="M0 132L15 133.7C30 135.3 60 138.7 90 142.7C120 146.7 150 151.3 180 156C210 160.7 240 165.3 270 158.8C300 152.3 330 134.7 360 125.7C390 116.7 420 116.3 450 125.3C480 134.3 510 152.7 540 155.7C570 158.7 600 146.3 630 137.8C660 129.3 690 124.7 720 125.2C750 125.7 780 131.3 810 130.8C840 130.3 870 123.7 885 120.3L900 117L900 201L885 201C870 201 840 201 810 201C780 201 750 201 720 201C690 201 660 201 630 201C600 201 570 201 540 201C510 201 480 201 450 201C420 201 390 201 360 201C330 201 300 201 270 201C240 201 210 201 180 201C150 201 120 201 90 201C60 201 30 201 15 201L0 201Z" fill="#DDDEE0" stroke-linecap="round" stroke-linejoin="miter"></path></svg>