<svg id="visual" viewBox="0 0 900 600" width="900" height="600" xmlns="http://www.w3.org/2000/svg" xmlns:xlink="http://www.w3.org/1999/xlink" version="1.1"><rect x="0" y="0" width="900" height="600" fill="#EEEFAF"></rect><path d="M0 445L21.5 441.2C43 437.3 86 429.7 128.8 435C171.7 440.3 214.3 458.7 257.2 456.3C300 454 343 431 385.8 414.5C428.7 398 471.3 388 514.2 402C557 416 600 454 642.8 468.3C685.7 482.7 728.3 473.3 771.2 455.7C814 438 857 412 878.5 399L900 386L900 601L878.5 601C857 601 814 601 771.2 601C728.3 601 685.7 601 642.8 601C600 601 557 601 514.2 601C471.3 601 428.7 601 385.8 601C343 601 300 601 257.2 601C214.3 601 171.7 601 128.8 601C86 601 43 601 21.5 601L0 601Z" fill="#DDDEE0" stroke-linecap="round" stroke-linejoin="miter"></path></svg>